STARTFONT 2.1
FONT psf
SIZE 20 75 75
FONTBOUNDINGBOX 13 20 0 -5
STARTPROPERTIES 3
FONT_DESCENT 5
FONT_ASCENT 15
DEFAULT_CHAR 255
ENDPROPERTIES
CHARS 256
STARTCHAR C0000
ENCODING 0
SWIDTH 666 0
DWIDTH 13 0
BBX 13 20 0 -5
BITMAP
0000
0000
0900
0cc0
0e40
18c0
3060
2220
6730
4710
4010
4010
4f90
4890
4890
4890
78f0
0000
0000
0000
ENDCHAR
STARTCHAR C0001
ENCODING 1
SWIDTH 666 0
DWIDTH 13 0
BBX 13 20 0 -5
BITMAP
0000
0000
0480
1980
1380
18c0
3060
2220
6730
4710
4010
4010
4f90
4890
4890
4890
78f0
0000
0000
0000
ENDCHAR
STARTCHAR C0002
ENCODING 2
SWIDTH 666 0
DWIDTH 13 0
BBX 13 20 0 -5
BITMAP
0000
0000
0880
3260
2720
38e0
3060
2220
6730
4710
4010
4010
4f90
4890
4890
4890
78f0
0000
0000
0000
ENDCHAR
STARTCHAR C0003
ENCODING 3
SWIDTH 666 0
DWIDTH 13 0
BBX 13 20 0 -5
BITMAP
0000
0000
1150
2490
2e30
38e0
3060
2220
6730
4710
4010
4010
4f90
4890
4890
4890
78f0
0000
0000
0000
ENDCHAR
STARTCHAR C0004
ENCODING 4
SWIDTH 666 0
DWIDTH 13 0
BBX 13 20 0 -5
BITMAP
0000
0000
4010
7ff0
18c0
1040
3260
2220
6730
4710
4010
4010
4f90
4890
4890
4890
78f0
0000
0000
0000
ENDCHAR
STARTCHAR C0005
ENCODING 5
SWIDTH 666 0
DWIDTH 13 0
BBX 13 20 0 -5
BITMAP
0000
0000
5050
4f90
6030
38e0
3060
2220
6730
4710
4010
4010
4f90
4890
4890
4890
78f0
0000
0000
0000
ENDCHAR
STARTCHAR C0006
ENCODING 6
SWIDTH 666 0
DWIDTH 13 0
BBX 13 20 0 -5
BITMAP
0000
0000
4890
4890
78f0
1040
3260
2720
6530
4710
4010
4010
4f90
4890
4890
4890
78f0
0000
0000
0000
ENDCHAR
STARTCHAR C0007
ENCODING 7
SWIDTH 666 0
DWIDTH 13 0
BBX 13 20 0 -5
BITMAP
0000
0000
0880
1240
18c0
1040
3260
2720
6530
4710
4010
4010
4f90
4890
4890
4890
78f0
0000
0000
0000
ENDCHAR
STARTCHAR C0008
ENCODING 8
SWIDTH 666 0
DWIDTH 13 0
BBX 13 20 0 -5
BITMAP
0000
0000
0f80
0880
18c0
1040
3260
2720
6530
4710
4010
4010
4f90
4890
4f90
4c90
7cf0
04e0
04a0
0620
ENDCHAR
STARTCHAR C0009
ENCODING 9
SWIDTH 666 0
DWIDTH 13 0
BBX 13 20 0 -5
BITMAP
0000
0000
0240
0cc0
09c0
1860
3030
2310
6790
44f0
4c00
44f0
6790
2310
3030
1860
0fc0
0000
0000
0000
ENDCHAR
STARTCHAR C000a
ENCODING 10
SWIDTH 666 0
DWIDTH 13 0
BBX 13 20 0 -5
BITMAP
0000
0000
0840
3330
2790
3870
3030
2310
6790
44f0
4c00
44f0
6790
2310
3030
1860
0fc0
0000
0000
0000
ENDCHAR
STARTCHAR C000b
ENCODING 11
SWIDTH 666 0
DWIDTH 13 0
BBX 13 20 0 -5
BITMAP
0000
0000
0480
0480
0fc0
1860
3030
2310
6790
44f0
4c00
44f0
6790
2310
3030
1860
0fc0
0000
0000
0000
ENDCHAR
STARTCHAR C000c
ENCODING 12
SWIDTH 666 0
DWIDTH 13 0
BBX 13 20 0 -5
BITMAP
0000
0000
0fc0
1860
3030
2310
6790
44f0
4c00
4800
4c00
44f0
6790
2310
3030
1860
0c60
0f20
0920
0c60
ENDCHAR
STARTCHAR C000d
ENCODING 13
SWIDTH 666 0
DWIDTH 13 0
BBX 13 20 0 -5
BITMAP
0000
0000
2520
3260
18c0
1860
3030
2310
6790
44f0
4c00
44f0
6790
2310
3030
1860
0fc0
0000
0000
0000
ENDCHAR
STARTCHAR C000e
ENCODING 14
SWIDTH 666 0
DWIDTH 13 0
BBX 13 20 0 -5
BITMAP
0000
0000
2520
3260
78c0
40c0
4060
4e20
4b30
4910
4990
4910
4b30
4e20
4060
40c0
7f80
0000
0000
0000
ENDCHAR
STARTCHAR C000f
ENCODING 15
SWIDTH 666 0
DWIDTH 13 0
BBX 13 20 0 -5
BITMAP
0000
0000
1200
1980
7cf0
4010
4010
4ff0
4f80
4080
4080
4f80
4800
4ff0
4010
4010
7ff0
0000
0000
0000
ENDCHAR
STARTCHAR C0010
ENCODING 16
SWIDTH 666 0
DWIDTH 13 0
BBX 13 20 0 -5
BITMAP
0000
0000
0480
1980
73f0
4010
4010
4ff0
4f80
4080
4080
4f80
4800
4ff0
4010
4010
7ff0
0000
0000
0000
ENDCHAR
STARTCHAR C0011
ENCODING 17
SWIDTH 666 0
DWIDTH 13 0
BBX 13 20 0 -5
BITMAP
0000
0000
0880
3260
6730
4010
4010
4ff0
4f80
4080
4080
4f80
4800
4ff0
4010
4010
7ff0
0000
0000
0000
ENDCHAR
STARTCHAR C0012
ENCODING 18
SWIDTH 666 0
DWIDTH 13 0
BBX 13 20 0 -5
BITMAP
0000
0000
7ff0
4010
7ff0
4010
4010
4ff0
4f80
4080
4080
4f80
4800
4ff0
4010
4010
7ff0
0000
0000
0000
ENDCHAR
STARTCHAR C0013
ENCODING 19
SWIDTH 666 0
DWIDTH 13 0
BBX 13 20 0 -5
BITMAP
0000
0000
0900
0900
7ff0
4010
4010
4ff0
4f80
4080
4080
4f80
4800
4ff0
4010
4010
7ff0
0000
0000
0000
ENDCHAR
STARTCHAR C0014
ENCODING 20
SWIDTH 666 0
DWIDTH 13 0
BBX 13 20 0 -5
BITMAP
0000
0000
2520
2520
7ff0
4010
4010
4ff0
4f80
4080
4080
4f80
4800
4ff0
4010
4010
7ff0
0000
0000
0000
ENDCHAR
STARTCHAR C0015
ENCODING 21
SWIDTH 666 0
DWIDTH 13 0
BBX 13 20 0 -5
BITMAP
0000
0000
7ff0
4010
4010
4ff0
4800
4f80
4080
4080
4f80
4800
4800
4ff0
4010
4010
79f0
09c0
0940
0c40
ENDCHAR
STARTCHAR C0016
ENCODING 22
SWIDTH 666 0
DWIDTH 13 0
BBX 13 20 0 -5
BITMAP
0000
0000
2520
3260
78f0
4010
4010
4ff0
4f80
4080
4080
4f80
4800
4ff0
4010
4010
7ff0
0000
0000
0000
ENDCHAR
STARTCHAR C0017
ENCODING 23
SWIDTH 666 0
DWIDTH 13 0
BBX 13 20 0 -5
BITMAP
0000
0000
1f80
1680
1680
1680
1680
1680
1680
1680
1680
1680
1680
1680
1680
1680
1680
1680
1680
1f80
ENDCHAR
STARTCHAR C0018
ENCODING 24
SWIDTH 666 0
DWIDTH 13 0
BBX 13 20 0 -5
BITMAP
0000
0000
0840
3330
2790
3870
3030
2310
67f0
4410
4c10
4790
6790
2310
3030
1860
0fc0
0000
0000
0000
ENDCHAR
STARTCHAR C0019
ENCODING 25
SWIDTH 666 0
DWIDTH 13 0
BBX 13 20 0 -5
BITMAP
0000
0000
5050
4f90
6030
3860
3030
2310
67f0
4410
4c10
4790
6790
2310
3030
1860
0fc0
0000
0000
0000
ENDCHAR
STARTCHAR C001a
ENCODING 26
SWIDTH 666 0
DWIDTH 13 0
BBX 13 20 0 -5
BITMAP
0000
0000
0480
0480
0fc0
1860
3030
2310
67f0
4410
4c10
4790
6790
2310
3030
1860
0fc0
0000
0000
0000
ENDCHAR
STARTCHAR C001b
ENCODING 27
SWIDTH 666 0
DWIDTH 13 0
BBX 13 20 0 -5
BITMAP
0000
0000
0fc0
1860
3030
2310
6790
44f0
4ff0
4c10
4c10
4790
6790
2310
3030
1860
0c60
0f20
0920
0c60
ENDCHAR
STARTCHAR C001c
ENCODING 28
SWIDTH 666 0
DWIDTH 13 0
BBX 13 20 0 -5
BITMAP
0000
0000
0500
4890
4210
4f90
4890
4f90
4010
4010
4f90
4890
4890
4890
4890
4890
78f0
0000
0000
0000
ENDCHAR
STARTCHAR C001d
ENCODING 29
SWIDTH 666 0
DWIDTH 13 0
BBX 13 20 0 -5
BITMAP
0000
0000
1200
1980
3cc0
2040
2040
39c0
0900
0900
0900
0900
0900
39c0
2040
2040
3fc0
0000
0000
0000
ENDCHAR
STARTCHAR C001e
ENCODING 30
SWIDTH 666 0
DWIDTH 13 0
BBX 13 20 0 -5
BITMAP
0000
0000
0480
1980
33c0
2040
2040
39c0
0900
0900
0900
0900
0900
39c0
2040
2040
3fc0
0000
0000
0000
ENDCHAR
STARTCHAR C001f
ENCODING 31
SWIDTH 666 0
DWIDTH 13 0
BBX 13 20 0 -5
BITMAP
0000
0000
1080
6660
4f20
6060
2040
39c0
0900
0900
0900
0900
0900
39c0
2040
2040
3fc0
0000
0000
0000
ENDCHAR
STARTCHAR C0020
ENCODING 32
SWIDTH 666 0
DWIDTH 13 0
BBX 13 20 0 -5
BITMAP
0000
0000
22a0
4920
5c60
6040
2040
39c0
0900
0900
0900
0900
0900
39c0
2040
2040
3fc0
0000
0000
0000
ENDCHAR
STARTCHAR C0021
ENCODING 33
SWIDTH 666 0
DWIDTH 13 0
BBX 13 20 0 -5
BITMAP
0000
0000
7fe0
4020
7fe0
2040
2040
39c0
0900
0900
0900
0900
0900
39c0
2040
2040
3fc0
0000
0000
0000
ENDCHAR
STARTCHAR C0022
ENCODING 34
SWIDTH 666 0
DWIDTH 13 0
BBX 13 20 0 -5
BITMAP
0000
0000
0900
0900
3fc0
2040
2040
39c0
0900
0900
0900
0900
0900
39c0
2040
2040
3fc0
0000
0000
0000
ENDCHAR
STARTCHAR C0023
ENCODING 35
SWIDTH 666 0
DWIDTH 13 0
BBX 13 20 0 -5
BITMAP
0000
0000
2640
2640
3fc0
2040
2040
39c0
0900
0900
0900
0900
0900
39c0
2040
2040
3fc0
0000
0000
0000
ENDCHAR
STARTCHAR C0024
ENCODING 36
SWIDTH 666 0
DWIDTH 13 0
BBX 13 20 0 -5
BITMAP
0000
0000
3fc0
2040
2040
39c0
0900
0900
0900
0900
0900
0900
0900
39c0
2040
2040
3cc0
04e0
04a0
0620
ENDCHAR
STARTCHAR C0025
ENCODING 37
SWIDTH 666 0
DWIDTH 13 0
BBX 13 20 0 -5
BITMAP
0000
0000
0a00
3190
6490
4e10
7b90
0090
0090
0090
0090
3c90
2790
2310
3030
1860
0fc0
0000
0000
0000
ENDCHAR
STARTCHAR C0026
ENCODING 38
SWIDTH 666 0
DWIDTH 13 0
BBX 13 20 0 -5
BITMAP
0000
0000
78f0
4990
4b10
4e30
4c60
48c0
4180
4300
4180
48c0
4c60
4e30
4f10
4c90
7c70
0f20
0920
0c60
ENDCHAR
STARTCHAR C0027
ENCODING 39
SWIDTH 666 0
DWIDTH 13 0
BBX 13 20 0 -5
BITMAP
0000
0000
0120
4e60
4cc0
4f80
4800
4800
4800
4800
4800
4800
4800
4ff0
4010
4010
7ff0
0000
0000
0000
ENDCHAR
STARTCHAR C0028
ENCODING 40
SWIDTH 666 0
DWIDTH 13 0
BBX 13 20 0 -5
BITMAP
0000
0000
7800
4800
4800
4800
4800
4800
4800
4800
4800
4800
4800
4ff0
4010
4010
7c70
0f20
0920
0c60
ENDCHAR
STARTCHAR C0029
ENCODING 41
SWIDTH 666 0
DWIDTH 13 0
BBX 13 20 0 -5
BITMAP
0000
0000
1290
4930
4c60
4ec0
4b80
4800
4800
4800
4800
4800
4800
4ff0
4010
4010
7ff0
0000
0000
0000
ENDCHAR
STARTCHAR C002a
ENCODING 42
SWIDTH 666 0
DWIDTH 13 0
BBX 13 20 0 -5
BITMAP
0000
0000
0120
7e70
4490
4790
4290
4390
4190
4990
4890
4c90
4c10
4e10
4a10
4b10
79f0
0000
0000
0000
ENDCHAR
STARTCHAR C002b
ENCODING 43
SWIDTH 666 0
DWIDTH 13 0
BBX 13 20 0 -5
BITMAP
0000
0000
1150
2490
6e30
4790
4290
4390
4190
4990
4890
4c90
4c10
4e10
4a10
4b10
79f0
0000
0000
0000
ENDCHAR
STARTCHAR C002c
ENCODING 44
SWIDTH 666 0
DWIDTH 13 0
BBX 13 20 0 -5
BITMAP
0000
0000
7cf0
4490
4690
4290
4390
4190
4990
4890
4c90
4c10
4e10
4a10
4f10
4910
78f0
1e40
1240
18c0
ENDCHAR
STARTCHAR C002d
ENCODING 45
SWIDTH 666 0
DWIDTH 13 0
BBX 13 20 0 -5
BITMAP
0000
0000
2520
3260
78f0
4590
4390
4390
4190
4990
4890
4c90
4c10
4e10
4a10
4b10
79f0
0000
0000
0000
ENDCHAR
STARTCHAR C002e
ENCODING 46
SWIDTH 666 0
DWIDTH 13 0
BBX 13 20 0 -5
BITMAP
0000
0000
0900
0cc0
1e40
3060
2020
6730
4d90
4890
4890
4890
4d90
6730
2020
3060
1fc0
0000
0000
0000
ENDCHAR
STARTCHAR C002f
ENCODING 47
SWIDTH 666 0
DWIDTH 13 0
BBX 13 20 0 -5
BITMAP
0000
0000
0480
1980
13c0
3060
2020
6730
4d90
4890
4890
4890
4d90
6730
2020
3060
1fc0
0000
0000
0000
ENDCHAR
STARTCHAR C0030
ENCODING 48
SWIDTH 666 0
DWIDTH 13 0
BBX 13 20 0 -5
BITMAP
0000
0000
0880
3260
2720
3060
2020
6730
4d90
4890
4890
4890
4d90
6730
2020
3060
1fc0
0000
0000
0000
ENDCHAR
STARTCHAR C0031
ENCODING 49
SWIDTH 666 0
DWIDTH 13 0
BBX 13 20 0 -5
BITMAP
0000
0000
1150
2490
2e30
3060
2020
6730
4d90
4890
4890
4890
4d90
6730
2020
3060
1fc0
0000
0000
0000
ENDCHAR
STARTCHAR C0032
ENCODING 50
SWIDTH 666 0
DWIDTH 13 0
BBX 13 20 0 -5
BITMAP
0000
0000
4010
7ff0
3060
2020
6730
4d90
4890
4890
4890
4890
4d90
6730
2020
3060
1fc0
0000
0000
0000
ENDCHAR
STARTCHAR C0033
ENCODING 51
SWIDTH 666 0
DWIDTH 13 0
BBX 13 20 0 -5
BITMAP
0000
0000
4890
4f90
7070
2020
6730
4d90
4890
4890
4890
4890
4d90
6730
2020
3060
1fc0
0000
0000
0000
ENDCHAR
STARTCHAR C0034
ENCODING 52
SWIDTH 666 0
DWIDTH 13 0
BBX 13 20 0 -5
BITMAP
0000
0000
0990
3330
2660
3060
2020
6730
4d90
4890
4890
4890
4d90
6730
2020
3060
1fc0
0000
0000
0000
ENDCHAR
STARTCHAR C0035
ENCODING 53
SWIDTH 666 0
DWIDTH 13 0
BBX 13 20 0 -5
BITMAP
0000
0000
0240
0cc0
79c0
4060
4030
4f10
4990
4f10
4030
4060
4c60
4e30
4b10
4990
78f0
0000
0000
0000
ENDCHAR
STARTCHAR C0036
ENCODING 54
SWIDTH 666 0
DWIDTH 13 0
BBX 13 20 0 -5
BITMAP
0000
0000
7fc0
4060
4030
4f10
4990
4990
4f10
4030
4060
48c0
4c60
4e30
4f10
4c90
7c70
0f20
0920
0c60
ENDCHAR
STARTCHAR C0037
ENCODING 55
SWIDTH 666 0
DWIDTH 13 0
BBX 13 20 0 -5
BITMAP
0000
0000
2520
3260
78c0
4060
4030
4f10
4990
4f10
4030
4060
4c60
4e30
4b10
4990
78f0
0000
0000
0000
ENDCHAR
STARTCHAR C0038
ENCODING 56
SWIDTH 666 0
DWIDTH 13 0
BBX 13 20 0 -5
BITMAP
0000
0000
0480
1980
13c0
3060
6030
4710
47f0
6060
3030
7f10
4d90
4710
6030
3060
1fc0
0000
0000
0000
ENDCHAR
STARTCHAR C0039
ENCODING 57
SWIDTH 666 0
DWIDTH 13 0
BBX 13 20 0 -5
BITMAP
0000
0000
0880
3260
2720
3060
6030
4710
47f0
6060
3030
7f10
4d90
4710
6030
3060
1fc0
0000
0000
0000
ENDCHAR
STARTCHAR C003a
ENCODING 58
SWIDTH 666 0
DWIDTH 13 0
BBX 13 20 0 -5
BITMAP
0000
0000
1fc0
3060
6030
4710
4d90
47f0
6060
3030
1f10
7990
4d90
4710
6030
3060
1c60
0f20
0920
0c60
ENDCHAR
STARTCHAR C003b
ENCODING 59
SWIDTH 666 0
DWIDTH 13 0
BBX 13 20 0 -5
BITMAP
0000
0000
2520
3260
18c0
3060
6030
4710
47f0
6060
3030
7f10
4d90
4710
6030
3060
1fc0
0000
0000
0000
ENDCHAR
STARTCHAR C003c
ENCODING 60
SWIDTH 666 0
DWIDTH 13 0
BBX 13 20 0 -5
BITMAP
0000
0000
7fe0
4020
4020
79e0
0900
0900
0900
0900
0900
0900
0900
0900
0980
08c0
0c60
0f20
0920
0c60
ENDCHAR
STARTCHAR C003d
ENCODING 61
SWIDTH 666 0
DWIDTH 13 0
BBX 13 20 0 -5
BITMAP
0000
0000
2640
30c0
79e0
4020
4020
79e0
0900
0900
0900
0900
0900
0900
0900
0900
0f00
0000
0000
0000
ENDCHAR
STARTCHAR C003e
ENCODING 62
SWIDTH 666 0
DWIDTH 13 0
BBX 13 20 0 -5
BITMAP
0000
0000
1200
4990
4c90
4f90
4890
4890
4890
4890
4890
4890
4d90
4710
6030
3060
1fc0
0000
0000
0000
ENDCHAR
STARTCHAR C003f
ENCODING 63
SWIDTH 666 0
DWIDTH 13 0
BBX 13 20 0 -5
BITMAP
0000
0000
0240
4c90
4990
4f90
4890
4890
4890
4890
4890
4890
4d90
4710
6030
3060
1fc0
0000
0000
0000
ENDCHAR
STARTCHAR C0040
ENCODING 64
SWIDTH 666 0
DWIDTH 13 0
BBX 13 20 0 -5
BITMAP
0000
0000
0880
3260
2720
7df0
4890
4890
4890
4890
4890
4890
4d90
4710
6030
3060
1fc0
0000
0000
0000
ENDCHAR
STARTCHAR C0041
ENCODING 65
SWIDTH 666 0
DWIDTH 13 0
BBX 13 20 0 -5
BITMAP
0000
0000
1150
2490
2e30
7bf0
4890
4890
4890
4890
4890
4890
4d90
4710
6030
3060
1fc0
0000
0000
0000
ENDCHAR
STARTCHAR C0042
ENCODING 66
SWIDTH 666 0
DWIDTH 13 0
BBX 13 20 0 -5
BITMAP
0000
0000
4010
7ff0
4890
4890
4890
4890
4890
4890
4890
4890
4d90
4710
6030
3060
1fc0
0000
0000
0000
ENDCHAR
STARTCHAR C0043
ENCODING 67
SWIDTH 666 0
DWIDTH 13 0
BBX 13 20 0 -5
BITMAP
0000
0000
5050
4f90
6030
7ff0
4890
4890
4890
4890
4890
4890
4d90
4710
6030
3060
1fc0
0000
0000
0000
ENDCHAR
STARTCHAR C0044
ENCODING 68
SWIDTH 666 0
DWIDTH 13 0
BBX 13 20 0 -5
BITMAP
0000
0000
2520
2520
7df0
4890
4890
4890
4890
4890
4890
4890
4d90
4710
6030
3060
1fc0
0000
0000
0000
ENDCHAR
STARTCHAR C0045
ENCODING 69
SWIDTH 666 0
DWIDTH 13 0
BBX 13 20 0 -5
BITMAP
0000
0000
0880
1240
78f0
4f90
4890
4890
4890
4890
4890
4890
4d90
4710
6030
3060
1fc0
0000
0000
0000
ENDCHAR
STARTCHAR C0046
ENCODING 70
SWIDTH 666 0
DWIDTH 13 0
BBX 13 20 0 -5
BITMAP
0000
0000
0990
3330
2660
7ff0
4890
4890
4890
4890
4890
4890
4d90
4710
6030
3060
1fc0
0000
0000
0000
ENDCHAR
STARTCHAR C0047
ENCODING 71
SWIDTH 666 0
DWIDTH 13 0
BBX 13 20 0 -5
BITMAP
0000
0000
78f0
4890
4890
4890
4890
4890
4890
4890
4890
4890
4d90
4710
6030
3060
1c60
0f20
0920
0c60
ENDCHAR
STARTCHAR C0048
ENCODING 72
SWIDTH 666 0
DWIDTH 13 0
BBX 13 20 0 -5
BITMAP
0000
0000
0500
4890
4210
4f90
4890
4890
4890
4f90
4d90
4890
4010
4210
4710
4d90
78f0
0000
0000
0000
ENDCHAR
STARTCHAR C0049
ENCODING 73
SWIDTH 666 0
DWIDTH 13 0
BBX 13 20 0 -5
BITMAP
0000
0000
0240
7ce0
4920
4f20
4620
6660
2040
30c0
1080
1980
0900
0900
0900
0900
0f00
0000
0000
0000
ENDCHAR
STARTCHAR C004a
ENCODING 74
SWIDTH 666 0
DWIDTH 13 0
BBX 13 20 0 -5
BITMAP
0000
0000
0900
30c0
2640
7fe0
4f20
4620
6660
2040
30c0
1080
1980
0900
0900
0900
0f00
0000
0000
0000
ENDCHAR
STARTCHAR C004b
ENCODING 75
SWIDTH 666 0
DWIDTH 13 0
BBX 13 20 0 -5
BITMAP
0000
0000
2640
2640
7fe0
4920
4f20
4620
6660
2040
30c0
1080
1980
0900
0900
0900
0f00
0000
0000
0000
ENDCHAR
STARTCHAR C004c
ENCODING 76
SWIDTH 666 0
DWIDTH 13 0
BBX 13 20 0 -5
BITMAP
0000
0000
0240
0cc0
79f0
4010
4010
7f10
0630
0c60
18c0
3180
6300
47f0
4010
4010
7ff0
0000
0000
0000
ENDCHAR
STARTCHAR C004d
ENCODING 77
SWIDTH 666 0
DWIDTH 13 0
BBX 13 20 0 -5
BITMAP
0000
0000
0480
0480
7ff0
4010
4010
7f10
0630
0c60
18c0
3180
6300
47f0
4010
4010
7ff0
0000
0000
0000
ENDCHAR
STARTCHAR C004e
ENCODING 78
SWIDTH 666 0
DWIDTH 13 0
BBX 13 20 0 -5
BITMAP
0000
0000
2520
3260
78f0
4010
4010
7f10
0630
0c60
18c0
3180
6300
47f0
4010
4010
7ff0
0000
0000
0000
ENDCHAR
STARTCHAR C004f
ENCODING 79
SWIDTH 666 0
DWIDTH 13 0
BBX 13 20 0 -5
BITMAP
0000
0000
0000
0000
0000
0000
0000
0000
3fc0
2040
30c0
1980
0f00
0000
0000
0000
0000
0000
0000
0000
ENDCHAR
STARTCHAR C0050
ENCODING 80
SWIDTH 666 0
DWIDTH 13 0
BBX 13 20 0 -5
BITMAP
0000
0000
1e00
1300
1980
0c80
1ff0
3090
6010
4710
4d90
4890
4d90
4710
6010
3090
1ff0
0000
0000
0000
ENDCHAR
STARTCHAR C0051
ENCODING 81
SWIDTH 666 0
DWIDTH 13 0
BBX 13 20 0 -5
BITMAP
0000
0000
03c0
0640
0cc0
0980
1ff0
3090
6010
4710
4d90
4890
4d90
4710
6010
3090
1ff0
0000
0000
0000
ENDCHAR
STARTCHAR C0052
ENCODING 82
SWIDTH 666 0
DWIDTH 13 0
BBX 13 20 0 -5
BITMAP
0000
0000
0500
18c0
3260
2720
3ff0
3090
6010
4710
4d90
4890
4d90
4710
6010
3090
1ff0
0000
0000
0000
ENDCHAR
STARTCHAR C0053
ENCODING 83
SWIDTH 666 0
DWIDTH 13 0
BBX 13 20 0 -5
BITMAP
0000
0000
1f70
31d0
2490
2e30
3ff0
3090
6010
4710
4d90
4890
4d90
4710
6010
3090
1ff0
0000
0000
0000
ENDCHAR
STARTCHAR C0054
ENCODING 84
SWIDTH 666 0
DWIDTH 13 0
BBX 13 20 0 -5
BITMAP
0000
0000
0000
7ff0
4010
7ff0
1ff0
3090
6010
4710
4d90
4890
4d90
4710
6010
3090
1ff0
0000
0000
0000
ENDCHAR
STARTCHAR C0055
ENCODING 85
SWIDTH 666 0
DWIDTH 13 0
BBX 13 20 0 -5
BITMAP
0000
0000
7070
58d0
4f90
6030
3ff0
3090
6010
4710
4d90
4890
4d90
4710
6010
3090
1ff0
0000
0000
0000
ENDCHAR
STARTCHAR C0056
ENCODING 86
SWIDTH 666 0
DWIDTH 13 0
BBX 13 20 0 -5
BITMAP
0000
0000
0000
1fe0
1320
1320
1ff0
3090
6010
4710
4d90
4890
4d90
4710
6010
3090
1ff0
0000
0000
0000
ENDCHAR
STARTCHAR C0057
ENCODING 87
SWIDTH 666 0
DWIDTH 13 0
BBX 13 20 0 -5
BITMAP
0000
0000
0f80
18c0
1240
18c0
1ff0
3090
6010
4710
4d90
4890
4d90
4710
6010
3090
1ff0
0000
0000
0000
ENDCHAR
STARTCHAR C0058
ENCODING 88
SWIDTH 666 0
DWIDTH 13 0
BBX 13 20 0 -5
BITMAP
0000
0000
0000
0000
0000
0000
1ff0
3090
6010
4710
4d90
4890
4d90
4710
6010
3090
19f0
09c0
0940
0c40
ENDCHAR
STARTCHAR C0059
ENCODING 89
SWIDTH 666 0
DWIDTH 13 0
BBX 13 20 0 -5
BITMAP
0000
0000
03c0
0640
0cc0
0980
1fc0
3060
6030
4710
4df0
4800
4df0
4710
6030
3060
1fc0
0000
0000
0000
ENDCHAR
STARTCHAR C005a
ENCODING 90
SWIDTH 666 0
DWIDTH 13 0
BBX 13 20 0 -5
BITMAP
0000
0000
0500
18c0
3260
2720
3fe0
3060
6030
4710
4df0
4800
4df0
4710
6030
3060
1fc0
0000
0000
0000
ENDCHAR
STARTCHAR C005b
ENCODING 91
SWIDTH 666 0
DWIDTH 13 0
BBX 13 20 0 -5
BITMAP
0000
0000
0000
0780
0480
0480
1fc0
3060
6030
4710
4df0
4800
4df0
4710
6030
3060
1fc0
0000
0000
0000
ENDCHAR
STARTCHAR C005c
ENCODING 92
SWIDTH 666 0
DWIDTH 13 0
BBX 13 20 0 -5
BITMAP
0000
0000
0000
0000
0000
0000
1fc0
3060
6030
4710
4df0
4800
4df0
4710
6030
3060
18c0
1e40
1240
18c0
ENDCHAR
STARTCHAR C005d
ENCODING 93
SWIDTH 666 0
DWIDTH 13 0
BBX 13 20 0 -5
BITMAP
0000
0000
3de0
2720
3260
18c0
1dc0
3060
6030
4710
4df0
4800
4df0
4710
6030
3060
1fc0
0000
0000
0000
ENDCHAR
STARTCHAR C005e
ENCODING 94
SWIDTH 666 0
DWIDTH 13 0
BBX 13 20 0 -5
BITMAP
0000
0000
7bf0
4e10
6490
3190
1f90
3090
6010
4710
4d90
4890
4d90
4710
6010
3090
1ff0
0000
0000
0000
ENDCHAR
STARTCHAR C005f
ENCODING 95
SWIDTH 666 0
DWIDTH 13 0
BBX 13 20 0 -5
BITMAP
0000
0000
1e00
1300
1980
0c80
1fc0
3060
6030
4710
4010
4010
4ff0
4710
6030
3060
1fc0
0000
0000
0000
ENDCHAR
STARTCHAR C0060
ENCODING 96
SWIDTH 666 0
DWIDTH 13 0
BBX 13 20 0 -5
BITMAP
0000
0000
03c0
0640
0cc0
0980
1fc0
3060
6030
4710
4010
4010
4ff0
4710
6030
3060
1fc0
0000
0000
0000
ENDCHAR
STARTCHAR C0061
ENCODING 97
SWIDTH 666 0
DWIDTH 13 0
BBX 13 20 0 -5
BITMAP
0000
0000
0500
18c0
3260
2720
3fe0
3060
6030
4710
4010
4010
4ff0
4710
6030
3060
1fc0
0000
0000
0000
ENDCHAR
STARTCHAR C0062
ENCODING 98
SWIDTH 666 0
DWIDTH 13 0
BBX 13 20 0 -5
BITMAP
0000
0000
0000
7ff0
4010
7ff0
1fc0
3060
6030
4710
4010
4010
4ff0
4710
6030
3060
1fc0
0000
0000
0000
ENDCHAR
STARTCHAR C0063
ENCODING 99
SWIDTH 666 0
DWIDTH 13 0
BBX 13 20 0 -5
BITMAP
0000
0000
0000
0780
0480
0480
1fc0
3060
6030
4710
4010
4010
4ff0
4710
6030
3060
1fc0
0000
0000
0000
ENDCHAR
STARTCHAR C0064
ENCODING 100
SWIDTH 666 0
DWIDTH 13 0
BBX 13 20 0 -5
BITMAP
0000
0000
0000
1fe0
1320
1320
1fe0
3060
6030
4710
4010
4010
4ff0
4710
6030
3060
1fc0
0000
0000
0000
ENDCHAR
STARTCHAR C0065
ENCODING 101
SWIDTH 666 0
DWIDTH 13 0
BBX 13 20 0 -5
BITMAP
0000
0000
0000
0000
0000
0000
1fc0
3060
6030
4710
4010
4010
4ff0
4710
6030
3060
19c0
09c0
0940
0c40
ENDCHAR
STARTCHAR C0066
ENCODING 102
SWIDTH 666 0
DWIDTH 13 0
BBX 13 20 0 -5
BITMAP
0000
0000
3de0
2720
3260
18c0
1dc0
3060
6030
4710
4010
4010
4ff0
4710
6030
3060
1fc0
0000
0000
0000
ENDCHAR
STARTCHAR C0067
ENCODING 103
SWIDTH 666 0
DWIDTH 13 0
BBX 13 20 0 -5
BITMAP
0000
0000
03c0
0640
0cc0
0980
1ff0
3090
6010
4710
4d90
4d90
4710
6010
3010
7f90
4710
6030
3060
1fc0
ENDCHAR
STARTCHAR C0068
ENCODING 104
SWIDTH 666 0
DWIDTH 13 0
BBX 13 20 0 -5
BITMAP
0000
0000
0500
18c0
3260
2720
3ff0
3090
6010
4710
4d90
4d90
4710
6010
3010
7f90
4710
6030
3060
1fc0
ENDCHAR
STARTCHAR C0069
ENCODING 105
SWIDTH 666 0
DWIDTH 13 0
BBX 13 20 0 -5
BITMAP
0000
0000
7070
58d0
4f90
6030
3ff0
3090
6010
4710
4d90
4d90
4710
6010
3010
7f90
4710
6030
3060
1fc0
ENDCHAR
STARTCHAR C006a
ENCODING 106
SWIDTH 666 0
DWIDTH 13 0
BBX 13 20 0 -5
BITMAP
0000
0000
0000
0780
0480
0480
1ff0
3090
6010
4710
4d90
4d90
4710
6010
3010
7f90
4710
6030
3060
1fc0
ENDCHAR
STARTCHAR C006b
ENCODING 107
SWIDTH 666 0
DWIDTH 13 0
BBX 13 20 0 -5
BITMAP
0000
0000
0fe0
0820
09e0
09c0
0860
1f20
1320
1860
0fc0
0000
0000
0000
0000
0000
0000
0000
0000
0000
ENDCHAR
STARTCHAR C006c
ENCODING 108
SWIDTH 666 0
DWIDTH 13 0
BBX 13 20 0 -5
BITMAP
0000
0000
0280
4c60
4930
4390
4ff0
4860
4030
4710
4d90
4890
4890
4890
4890
4890
78f0
0000
0000
0000
ENDCHAR
STARTCHAR C006d
ENCODING 109
SWIDTH 666 0
DWIDTH 13 0
BBX 13 20 0 -5
BITMAP
0000
0000
1e00
1300
1980
0c80
1f80
1080
1080
1c80
0480
0480
0480
0480
0480
0480
0780
0000
0000
0000
ENDCHAR
STARTCHAR C006e
ENCODING 110
SWIDTH 666 0
DWIDTH 13 0
BBX 13 20 0 -5
BITMAP
0000
0000
0780
0c80
1980
1300
1f80
1080
1080
1c80
0480
0480
0480
0480
0480
0480
0780
0000
0000
0000
ENDCHAR
STARTCHAR C006f
ENCODING 111
SWIDTH 666 0
DWIDTH 13 0
BBX 13 20 0 -5
BITMAP
0000
0000
0500
18c0
3260
2720
3fe0
1080
1080
1c80
0480
0480
0480
0480
0480
0480
0780
0000
0000
0000
ENDCHAR
STARTCHAR C0070
ENCODING 112
SWIDTH 666 0
DWIDTH 13 0
BBX 13 20 0 -5
BITMAP
0000
0000
3ee0
63a0
4920
5c60
7fc0
1080
1080
1c80
0480
0480
0480
0480
0480
0480
0780
0000
0000
0000
ENDCHAR
STARTCHAR C0071
ENCODING 113
SWIDTH 666 0
DWIDTH 13 0
BBX 13 20 0 -5
BITMAP
0000
0000
0000
7ff0
4010
7ff0
1f80
1080
1080
1c80
0480
0480
0480
0480
0480
0480
0780
0000
0000
0000
ENDCHAR
STARTCHAR C0072
ENCODING 114
SWIDTH 666 0
DWIDTH 13 0
BBX 13 20 0 -5
BITMAP
0000
0000
0f00
1980
30c0
2040
39c0
0900
0900
0900
0900
39c0
2040
30c0
1980
0f00
0000
0000
0000
0000
ENDCHAR
STARTCHAR C0073
ENCODING 115
SWIDTH 666 0
DWIDTH 13 0
BBX 13 20 0 -5
BITMAP
0000
0000
0000
3fc0
2640
2640
3fc0
1080
1080
1c80
0480
0480
0480
0480
0480
0480
0780
0000
0000
0000
ENDCHAR
STARTCHAR C0074
ENCODING 116
SWIDTH 666 0
DWIDTH 13 0
BBX 13 20 0 -5
BITMAP
0000
0000
0000
0780
0480
0480
1f80
1080
1080
1c80
0480
0480
0480
0480
0480
0c80
0980
09c0
0940
0c40
ENDCHAR
STARTCHAR C0075
ENCODING 117
SWIDTH 666 0
DWIDTH 13 0
BBX 13 20 0 -5
BITMAP
0000
0000
0500
18c0
3260
2720
3fe0
0820
0820
0f20
0120
0120
0120
0120
7920
4f20
4620
6060
30c0
1f80
ENDCHAR
STARTCHAR C0076
ENCODING 118
SWIDTH 666 0
DWIDTH 13 0
BBX 13 20 0 -5
BITMAP
0000
0000
3c00
2400
2400
2400
25e0
2720
2620
2460
20c0
2180
20c0
2460
2620
2420
3c60
0f20
0920
0c60
ENDCHAR
STARTCHAR C0077
ENCODING 119
SWIDTH 666 0
DWIDTH 13 0
BBX 13 20 0 -5
BITMAP
0000
0000
1ef0
1390
1330
1260
13c0
1200
1200
1200
1200
1200
1200
1380
1080
1880
0f80
0000
0000
0000
ENDCHAR
STARTCHAR C0078
ENCODING 120
SWIDTH 666 0
DWIDTH 13 0
BBX 13 20 0 -5
BITMAP
0000
0000
1e00
1200
1200
1200
1200
1200
1200
1200
1200
1200
1200
1380
1080
18c0
0c60
0f20
0920
0c60
ENDCHAR
STARTCHAR C0079
ENCODING 121
SWIDTH 666 0
DWIDTH 13 0
BBX 13 20 0 -5
BITMAP
0000
0000
3ff0
2490
2630
2760
25c0
2400
2400
2400
2400
2400
2400
2700
2100
3100
1f00
0000
0000
0000
ENDCHAR
STARTCHAR C007a
ENCODING 122
SWIDTH 666 0
DWIDTH 13 0
BBX 13 20 0 -5
BITMAP
0000
0000
03c0
0640
0cc0
0980
7fc0
4860
4030
4710
4d90
4890
4890
4890
4890
4890
78f0
0000
0000
0000
ENDCHAR
STARTCHAR C007b
ENCODING 123
SWIDTH 666 0
DWIDTH 13 0
BBX 13 20 0 -5
BITMAP
0000
0000
3ee0
63a0
4920
5c60
7fc0
4860
4030
4710
4d90
4890
4890
4890
4890
4890
78f0
0000
0000
0000
ENDCHAR
STARTCHAR C007c
ENCODING 124
SWIDTH 666 0
DWIDTH 13 0
BBX 13 20 0 -5
BITMAP
0000
0000
0000
0000
0000
0000
7fc0
4860
4030
4710
4d90
4890
4890
4890
4f90
4990
78f0
1e40
1240
18c0
ENDCHAR
STARTCHAR C007d
ENCODING 125
SWIDTH 666 0
DWIDTH 13 0
BBX 13 20 0 -5
BITMAP
0000
0000
3de0
2720
3260
18c0
7dc0
4860
4030
4710
4d90
4890
4890
4890
4890
4890
78f0
0000
0000
0000
ENDCHAR
STARTCHAR C007e
ENCODING 126
SWIDTH 666 0
DWIDTH 13 0
BBX 13 20 0 -5
BITMAP
0000
0000
1e00
1300
1980
0c80
1fc0
3060
6030
4710
4d90
4890
4d90
4710
6030
3060
1fc0
0000
0000
0000
ENDCHAR
STARTCHAR C007f
ENCODING 127
SWIDTH 666 0
DWIDTH 13 0
BBX 13 20 0 -5
BITMAP
0000
0000
03c0
0640
0cc0
0980
1fc0
3060
6030
4710
4d90
4890
4d90
4710
6030
3060
1fc0
0000
0000
0000
ENDCHAR
STARTCHAR C0080
ENCODING 128
SWIDTH 666 0
DWIDTH 13 0
BBX 13 20 0 -5
BITMAP
0000
0000
0500
18c0
3260
2720
3fe0
3060
6030
4710
4d90
4890
4d90
4710
6030
3060
1fc0
0000
0000
0000
ENDCHAR
STARTCHAR C0081
ENCODING 129
SWIDTH 666 0
DWIDTH 13 0
BBX 13 20 0 -5
BITMAP
0000
0000
1f70
31d0
2490
2e30
3fe0
3060
6030
4710
4d90
4890
4d90
4710
6030
3060
1fc0
0000
0000
0000
ENDCHAR
STARTCHAR C0082
ENCODING 130
SWIDTH 666 0
DWIDTH 13 0
BBX 13 20 0 -5
BITMAP
0000
0000
0000
7ff0
4010
7ff0
1fc0
3060
6030
4710
4d90
4890
4d90
4710
6030
3060
1fc0
0000
0000
0000
ENDCHAR
STARTCHAR C0083
ENCODING 131
SWIDTH 666 0
DWIDTH 13 0
BBX 13 20 0 -5
BITMAP
0000
0000
0000
3de0
2520
2520
3fe0
3060
6030
4710
4d90
4890
4d90
4710
6030
3060
1fc0
0000
0000
0000
ENDCHAR
STARTCHAR C0084
ENCODING 132
SWIDTH 666 0
DWIDTH 13 0
BBX 13 20 0 -5
BITMAP
0000
0000
0ff0
1990
3330
2660
3fc0
3060
6030
4710
4d90
4890
4d90
4710
6030
3060
1fc0
0000
0000
0000
ENDCHAR
STARTCHAR C0085
ENCODING 133
SWIDTH 666 0
DWIDTH 13 0
BBX 13 20 0 -5
BITMAP
0000
0000
0780
0c80
1980
1300
7fc0
4860
4020
43a0
46e0
4c00
4800
4800
4800
4800
7800
0000
0000
0000
ENDCHAR
STARTCHAR C0086
ENCODING 134
SWIDTH 666 0
DWIDTH 13 0
BBX 13 20 0 -5
BITMAP
0000
0000
0000
0000
0000
0000
3fe0
2430
2010
2390
26f0
2400
2400
2400
2780
24c0
3c60
0f20
0920
0c60
ENDCHAR
STARTCHAR C0087
ENCODING 135
SWIDTH 666 0
DWIDTH 13 0
BBX 13 20 0 -5
BITMAP
0000
0000
3de0
2720
3260
18c0
3fe0
2430
2010
2390
26f0
2400
2400
2400
2400
2400
3c00
0000
0000
0000
ENDCHAR
STARTCHAR C0088
ENCODING 136
SWIDTH 666 0
DWIDTH 13 0
BBX 13 20 0 -5
BITMAP
0000
0000
03c0
0640
0cc0
0980
3fe0
6030
4010
4f90
41f0
6030
7c10
4f90
4010
6030
3fe0
0000
0000
0000
ENDCHAR
STARTCHAR C0089
ENCODING 137
SWIDTH 666 0
DWIDTH 13 0
BBX 13 20 0 -5
BITMAP
0000
0000
0500
18c0
3260
2720
3fe0
6030
4010
4f90
41f0
6030
7c10
4f90
4010
6030
3fe0
0000
0000
0000
ENDCHAR
STARTCHAR C008a
ENCODING 138
SWIDTH 666 0
DWIDTH 13 0
BBX 13 20 0 -5
BITMAP
0000
0000
0000
0000
0000
0000
3fe0
6030
4010
4f90
41f0
6030
7c10
4f90
4010
6030
3c60
0f20
0920
0c60
ENDCHAR
STARTCHAR C008b
ENCODING 139
SWIDTH 666 0
DWIDTH 13 0
BBX 13 20 0 -5
BITMAP
0000
0000
3de0
2720
3260
18c0
3fe0
6030
4010
4f90
41f0
6030
7c10
4f90
4010
6030
3fe0
0000
0000
0000
ENDCHAR
STARTCHAR C008c
ENCODING 140
SWIDTH 666 0
DWIDTH 13 0
BBX 13 20 0 -5
BITMAP
0000
0000
0f00
0900
0900
0900
39c0
2040
2040
39c0
0900
0900
0900
09e0
0820
0c20
0460
0f20
0920
0c60
ENDCHAR
STARTCHAR C008d
ENCODING 141
SWIDTH 666 0
DWIDTH 13 0
BBX 13 20 0 -5
BITMAP
0000
0000
1290
1930
1060
12c0
7380
4080
4080
7380
1200
1200
1200
13c0
1040
1840
0fc0
0000
0000
0000
ENDCHAR
STARTCHAR C008e
ENCODING 142
SWIDTH 666 0
DWIDTH 13 0
BBX 13 20 0 -5
BITMAP
0000
0000
1e00
1300
1980
0c80
7ff0
4890
4890
4890
4890
4890
4d90
4710
6010
3090
1ff0
0000
0000
0000
ENDCHAR
STARTCHAR C008f
ENCODING 143
SWIDTH 666 0
DWIDTH 13 0
BBX 13 20 0 -5
BITMAP
0000
0000
03c0
0640
0cc0
0980
7ff0
4890
4890
4890
4890
4890
4d90
4710
6010
3090
1ff0
0000
0000
0000
ENDCHAR
STARTCHAR C0090
ENCODING 144
SWIDTH 666 0
DWIDTH 13 0
BBX 13 20 0 -5
BITMAP
0000
0000
0500
18c0
3260
2720
7df0
4890
4890
4890
4890
4890
4d90
4710
6010
3090
1ff0
0000
0000
0000
ENDCHAR
STARTCHAR C0091
ENCODING 145
SWIDTH 666 0
DWIDTH 13 0
BBX 13 20 0 -5
BITMAP
0000
0000
1f00
31f0
2490
3e30
7bf0
4890
4890
4890
4890
4890
4990
4f10
6010
3090
1ff0
0000
0000
0000
ENDCHAR
STARTCHAR C0092
ENCODING 146
SWIDTH 666 0
DWIDTH 13 0
BBX 13 20 0 -5
BITMAP
0000
0000
0000
7ff0
4010
7ff0
78f0
4890
4890
4890
4890
4890
4d90
4710
6010
3090
1ff0
0000
0000
0000
ENDCHAR
STARTCHAR C0093
ENCODING 147
SWIDTH 666 0
DWIDTH 13 0
BBX 13 20 0 -5
BITMAP
0000
0000
7070
58d0
4f90
6030
7ff0
4890
4890
4890
4890
4890
4d90
4710
6010
3090
1ff0
0000
0000
0000
ENDCHAR
STARTCHAR C0094
ENCODING 148
SWIDTH 666 0
DWIDTH 13 0
BBX 13 20 0 -5
BITMAP
0000
0000
0000
3de0
2520
2520
7df0
4890
4890
4890
4890
4890
4d90
4710
6010
3090
1ff0
0000
0000
0000
ENDCHAR
STARTCHAR C0095
ENCODING 149
SWIDTH 666 0
DWIDTH 13 0
BBX 13 20 0 -5
BITMAP
0000
0000
0f80
18c0
1240
18c0
7ff0
4890
4890
4890
4890
4890
4d90
4710
6010
3090
1ff0
0000
0000
0000
ENDCHAR
STARTCHAR C0096
ENCODING 150
SWIDTH 666 0
DWIDTH 13 0
BBX 13 20 0 -5
BITMAP
0000
0000
0ff0
1990
3330
2660
7ff0
4890
4890
4890
4890
4890
4d90
4710
6010
3090
1ff0
0000
0000
0000
ENDCHAR
STARTCHAR C0097
ENCODING 151
SWIDTH 666 0
DWIDTH 13 0
BBX 13 20 0 -5
BITMAP
0000
0000
0000
0000
0000
0000
78f0
4890
4890
4890
4890
4890
4d90
4710
6010
3090
1c70
0f20
0920
0c60
ENDCHAR
STARTCHAR C0098
ENCODING 152
SWIDTH 666 0
DWIDTH 13 0
BBX 13 20 0 -5
BITMAP
0000
0000
0500
18c0
3260
2720
7df0
4890
4890
4890
4f90
4d90
4890
4010
6230
3760
1dc0
0000
0000
0000
ENDCHAR
STARTCHAR C0099
ENCODING 153
SWIDTH 666 0
DWIDTH 13 0
BBX 13 20 0 -5
BITMAP
0000
0000
03c0
0640
0cc0
0980
7ff0
4890
4d90
4510
6730
2220
3260
1040
18c0
0880
7980
4100
4300
7e00
ENDCHAR
STARTCHAR C009a
ENCODING 154
SWIDTH 666 0
DWIDTH 13 0
BBX 13 20 0 -5
BITMAP
0000
0000
0500
18c0
3260
2720
7df0
4890
4d90
4510
6730
2220
3260
1040
18c0
0880
7980
4100
4300
7e00
ENDCHAR
STARTCHAR C009b
ENCODING 155
SWIDTH 666 0
DWIDTH 13 0
BBX 13 20 0 -5
BITMAP
0000
0000
0000
3de0
2520
2520
7df0
4890
4d90
4510
6730
2220
3260
1040
18c0
0880
7980
4100
4300
7e00
ENDCHAR
STARTCHAR C009c
ENCODING 156
SWIDTH 666 0
DWIDTH 13 0
BBX 13 20 0 -5
BITMAP
0000
0000
03c0
0640
0cc0
0980
7ff0
4010
4010
7e30
0c60
18c0
3180
63f0
4010
4010
7ff0
0000
0000
0000
ENDCHAR
STARTCHAR C009d
ENCODING 157
SWIDTH 666 0
DWIDTH 13 0
BBX 13 20 0 -5
BITMAP
0000
0000
0000
0780
0480
0480
7ff0
4010
4010
7e30
0c60
18c0
3180
63f0
4010
4010
7ff0
0000
0000
0000
ENDCHAR
STARTCHAR C009e
ENCODING 158
SWIDTH 666 0
DWIDTH 13 0
BBX 13 20 0 -5
BITMAP
0000
0000
3de0
2720
3260
18c0
7ff0
4010
4010
7e30
0c60
18c0
3180
63f0
4010
4010
7ff0
0000
0000
0000
ENDCHAR
STARTCHAR C009f
ENCODING 159
SWIDTH 666 0
DWIDTH 13 0
BBX 13 20 0 -5
BITMAP
0000
0000
0000
0000
0000
0000
0000
0000
0000
0000
0000
7ff0
4010
4010
4010
4010
7ff0
0000
0000
0000
ENDCHAR
STARTCHAR C00a0
ENCODING 160
SWIDTH 666 0
DWIDTH 13 0
BBX 13 20 0 -5
BITMAP
0000
0000
0000
0000
0000
0000
0000
0000
0000
0000
0000
7ff0
4010
4010
4010
4010
7ff0
0000
0000
0000
ENDCHAR
STARTCHAR C00a1
ENCODING 161
SWIDTH 666 0
DWIDTH 13 0
BBX 13 20 0 -5
BITMAP
0000
0000
8200
8200
8200
8200
8200
8200
8200
8200
8200
8200
8200
8200
8200
8200
8200
8200
8200
8200
ENDCHAR
STARTCHAR C00a2
ENCODING 162
SWIDTH 666 0
DWIDTH 13 0
BBX 13 20 0 -5
BITMAP
0000
0000
0408
0408
0408
0408
0408
0408
0408
0408
0408
0408
0408
0408
0408
0408
0408
0408
0408
0408
ENDCHAR
STARTCHAR C00a3
ENCODING 163
SWIDTH 666 0
DWIDTH 13 0
BBX 13 20 0 -5
BITMAP
0000
0000
0000
0000
0000
0000
0000
0000
0000
0000
fff8
8008
8008
8008
8008
8008
8008
8008
8008
8008
ENDCHAR
STARTCHAR C00a4
ENCODING 164
SWIDTH 666 0
DWIDTH 13 0
BBX 13 20 0 -5
BITMAP
0000
0000
8008
8008
8008
8008
8008
8008
8008
8008
8008
fff8
0000
0000
0000
0000
0000
0000
0000
0000
ENDCHAR
STARTCHAR C00a5
ENCODING 165
SWIDTH 666 0
DWIDTH 13 0
BBX 13 20 0 -5
BITMAP
0000
0000
8100
8100
8100
8100
8100
8100
8100
8100
8100
8100
8100
8100
8100
8100
8100
8100
8100
8100
ENDCHAR
STARTCHAR C00a6
ENCODING 166
SWIDTH 666 0
DWIDTH 13 0
BBX 13 20 0 -5
BITMAP
0000
0000
0808
0808
0808
0808
0808
0808
0808
0808
0808
0808
0808
0808
0808
0808
0808
0808
0808
0808
ENDCHAR
STARTCHAR C00a7
ENCODING 167
SWIDTH 666 0
DWIDTH 13 0
BBX 13 20 0 -5
BITMAP
0000
0000
0000
0000
0000
0000
0000
0000
fff8
8008
8008
8008
8008
8008
8008
8008
8008
8008
8008
8008
ENDCHAR
STARTCHAR C00a8
ENCODING 168
SWIDTH 666 0
DWIDTH 13 0
BBX 13 20 0 -5
BITMAP
0000
0000
8008
8008
8008
8008
8008
8008
8008
8008
8008
8008
8008
fff8
0000
0000
0000
0000
0000
0000
ENDCHAR
STARTCHAR C00a9
ENCODING 169
SWIDTH 666 0
DWIDTH 13 0
BBX 13 20 0 -5
BITMAP
0000
0000
03f8
0608
0df8
1b00
3600
6c00
5800
6c00
3600
1b00
0df8
0608
03f8
0000
0000
0000
0000
0000
ENDCHAR
STARTCHAR C00aa
ENCODING 170
SWIDTH 666 0
DWIDTH 13 0
BBX 13 20 0 -5
BITMAP
0000
0000
fff0
8010
ffd0
7750
5d50
6b50
3650
6b50
5d50
7750
ffd0
8010
fff0
0000
0000
0000
0000
0000
ENDCHAR
STARTCHAR C00ab
ENCODING 171
SWIDTH 666 0
DWIDTH 13 0
BBX 13 20 0 -5
BITMAP
0000
0000
8008
8008
8008
8fc8
8848
8848
8848
8848
8848
8848
8848
8848
8848
8848
8fc8
8008
8008
8008
ENDCHAR
STARTCHAR C00ac
ENCODING 172
SWIDTH 666 0
DWIDTH 13 0
BBX 13 20 0 -5
BITMAP
0000
0000
0000
0000
0000
0000
0000
0000
0e00
0a00
0e00
0000
0000
0000
0000
0000
0000
0000
0000
0000
ENDCHAR
STARTCHAR C00ad
ENCODING 173
SWIDTH 666 0
DWIDTH 13 0
BBX 13 20 0 -5
BITMAP
0000
0000
0000
0000
0e00
0b00
0980
0a80
0a80
0980
0b00
0e00
0000
0000
0000
0000
0000
0000
0000
0000
ENDCHAR
STARTCHAR C00ae
ENCODING 174
SWIDTH 666 0
DWIDTH 13 0
BBX 13 20 0 -5
BITMAP
0000
0000
0000
0000
0000
0700
0d00
1900
3500
2d00
2d00
3500
1900
0d00
0700
0000
0000
0000
0000
0000
ENDCHAR
STARTCHAR C00af
ENCODING 175
SWIDTH 666 0
DWIDTH 13 0
BBX 13 20 0 -5
BITMAP
0000
0000
0000
0000
0380
0680
0d80
0b00
0b00
0d80
0680
0380
0000
0000
0000
0000
0000
0000
0000
0000
ENDCHAR
STARTCHAR C00b0
ENCODING 176
SWIDTH 666 0
DWIDTH 13 0
BBX 13 20 0 -5
BITMAP
0000
0000
0880
0880
0880
0880
0880
f8f8
8008
8008
8008
8008
8008
8008
fff8
0000
0000
0000
0000
0000
ENDCHAR
STARTCHAR C00b1
ENCODING 177
SWIDTH 666 0
DWIDTH 13 0
BBX 13 20 0 -5
BITMAP
0000
0000
0000
0000
0000
0000
0000
fff8
8008
8008
8008
8008
8008
8008
f8f8
0880
0880
0880
0880
0880
ENDCHAR
STARTCHAR C00b2
ENCODING 178
SWIDTH 666 0
DWIDTH 13 0
BBX 13 20 0 -5
BITMAP
0000
0000
8800
8800
8800
8800
8800
8e00
8200
8200
8200
8200
8200
8200
8e00
8800
8800
8800
8800
8800
ENDCHAR
STARTCHAR C00b3
ENCODING 179
SWIDTH 666 0
DWIDTH 13 0
BBX 13 20 0 -5
BITMAP
0000
0000
0088
0088
0088
0088
0088
0788
0408
0408
0408
0408
0408
0408
0788
0088
0088
0088
0088
0088
ENDCHAR
STARTCHAR C00b4
ENCODING 180
SWIDTH 666 0
DWIDTH 13 0
BBX 13 20 0 -5
BITMAP
0000
0000
0900
1900
1300
3200
2600
6400
4c00
c800
9800
9800
c800
4c00
6400
2600
3200
1300
1900
0900
ENDCHAR
STARTCHAR C00b5
ENCODING 181
SWIDTH 666 0
DWIDTH 13 0
BBX 13 20 0 -5
BITMAP
0000
0000
0240
0240
0260
0320
0120
0130
0190
0098
00c8
00c8
0098
0190
0130
0120
0320
0260
0240
0240
ENDCHAR
STARTCHAR C00b6
ENCODING 182
SWIDTH 666 0
DWIDTH 13 0
BBX 13 20 0 -5
BITMAP
0000
0000
0000
0000
0000
0000
0000
0000
0000
0000
f078
9048
98c8
c898
4d90
6530
2720
3260
1240
18c0
ENDCHAR
STARTCHAR C00b7
ENCODING 183
SWIDTH 666 0
DWIDTH 13 0
BBX 13 20 0 -5
BITMAP
0000
0000
0880
1240
3260
2720
6530
4d90
c898
98c8
9048
f078
0000
0000
0000
0000
0000
0000
0000
0000
ENDCHAR
STARTCHAR C00b8
ENCODING 184
SWIDTH 666 0
DWIDTH 13 0
BBX 13 20 0 -5
BITMAP
0000
0000
0900
1300
3200
2600
6400
4c00
c800
9800
9000
f000
0000
0000
0000
0000
0000
0000
0000
0000
ENDCHAR
STARTCHAR C00b9
ENCODING 185
SWIDTH 666 0
DWIDTH 13 0
BBX 13 20 0 -5
BITMAP
0000
0000
0480
0640
0260
0320
0130
0190
0098
00c8
0048
0078
0000
0000
0000
0000
0000
0000
0000
0000
ENDCHAR
STARTCHAR C00ba
ENCODING 186
SWIDTH 666 0
DWIDTH 13 0
BBX 13 20 0 -5
BITMAP
0000
0000
0000
0000
0000
0000
0000
0000
0000
0000
f000
9000
9800
c800
4c00
6400
2600
3200
1300
1900
ENDCHAR
STARTCHAR C00bb
ENCODING 187
SWIDTH 666 0
DWIDTH 13 0
BBX 13 20 0 -5
BITMAP
0000
0000
0000
0000
0000
0000
0000
0000
0000
0000
0078
0048
00c8
0098
0190
0130
0320
0260
0640
04c0
ENDCHAR
STARTCHAR C00bc
ENCODING 188
SWIDTH 666 0
DWIDTH 13 0
BBX 13 20 0 -5
BITMAP
0000
0000
0880
0880
0880
0880
0880
f8f8
8008
8008
8008
8008
8008
8008
f8f8
0880
0880
0880
0880
0880
ENDCHAR
STARTCHAR C00bd
ENCODING 189
SWIDTH 666 0
DWIDTH 13 0
BBX 13 20 0 -5
BITMAP
0000
0000
7ff0
4010
5fd0
5050
5fd0
6030
3060
18c0
0d80
0d80
1ac0
3760
6db0
5fd0
4010
4010
4010
7ff0
ENDCHAR
STARTCHAR C00be
ENCODING 190
SWIDTH 666 0
DWIDTH 13 0
BBX 13 20 0 -5
BITMAP
0000
0000
0000
1f80
70e0
c030
8010
8010
c030
70e0
1f80
0000
0000
0000
0000
0000
0000
0000
0000
0000
ENDCHAR
STARTCHAR C00bf
ENCODING 191
SWIDTH 666 0
DWIDTH 13 0
BBX 13 20 0 -5
BITMAP
0000
0000
0000
1f80
70e0
cf30
b9d0
b9d0
cf30
70e0
1f80
0000
0000
0000
0000
0000
0000
0000
0000
0000
ENDCHAR
STARTCHAR C00c0
ENCODING 192
SWIDTH 666 0
DWIDTH 13 0
BBX 13 20 0 -5
BITMAP
0000
0000
0500
0500
0500
0500
0500
0500
0500
0500
0500
0500
0500
0500
0500
0500
0500
0500
0500
0500
ENDCHAR
STARTCHAR C00c1
ENCODING 193
SWIDTH 666 0
DWIDTH 13 0
BBX 13 20 0 -5
BITMAP
0000
0000
0000
0000
0000
0000
0000
0000
0000
0000
fff8
8008
fff8
0000
0000
0000
0000
0000
0000
0000
ENDCHAR
STARTCHAR C00c2
ENCODING 194
SWIDTH 666 0
DWIDTH 13 0
BBX 13 20 0 -5
BITMAP
0000
0000
0000
0000
0000
0000
0000
0000
0000
0000
07f8
0408
05f8
0500
0500
0500
0500
0500
0500
0500
ENDCHAR
STARTCHAR C00c3
ENCODING 195
SWIDTH 666 0
DWIDTH 13 0
BBX 13 20 0 -5
BITMAP
0000
0000
0000
0000
0000
0000
0000
0000
0000
0000
ff00
8100
fd00
0500
0500
0500
0500
0500
0500
0500
ENDCHAR
STARTCHAR C00c4
ENCODING 196
SWIDTH 666 0
DWIDTH 13 0
BBX 13 20 0 -5
BITMAP
0000
0000
0500
0500
0500
0500
0500
0500
0500
05f8
0408
07f8
0000
0000
0000
0000
0000
0000
0000
0000
ENDCHAR
STARTCHAR C00c5
ENCODING 197
SWIDTH 666 0
DWIDTH 13 0
BBX 13 20 0 -5
BITMAP
0000
0000
0500
0500
0500
0500
0500
0500
0500
fd00
8100
ff00
0000
0000
0000
0000
0000
0000
0000
0000
ENDCHAR
STARTCHAR C00c6
ENCODING 198
SWIDTH 666 0
DWIDTH 13 0
BBX 13 20 0 -5
BITMAP
0000
0000
0500
0500
0500
0500
0500
0500
0500
0500
05f8
0408
05f8
0500
0500
0500
0500
0500
0500
0500
ENDCHAR
STARTCHAR C00c7
ENCODING 199
SWIDTH 666 0
DWIDTH 13 0
BBX 13 20 0 -5
BITMAP
0000
0000
0500
0500
0500
0500
0500
0500
0500
0500
fd00
8100
fd00
0500
0500
0500
0500
0500
0500
0500
ENDCHAR
STARTCHAR C00c8
ENCODING 200
SWIDTH 666 0
DWIDTH 13 0
BBX 13 20 0 -5
BITMAP
0000
0000
0000
0000
0000
0000
0000
0000
0000
0000
fff8
8008
fdf8
0500
0500
0500
0500
0500
0500
0500
ENDCHAR
STARTCHAR C00c9
ENCODING 201
SWIDTH 666 0
DWIDTH 13 0
BBX 13 20 0 -5
BITMAP
0000
0000
0500
0500
0500
0500
0500
0500
0500
0500
fdf8
8008
fff8
0000
0000
0000
0000
0000
0000
0000
ENDCHAR
STARTCHAR C00ca
ENCODING 202
SWIDTH 666 0
DWIDTH 13 0
BBX 13 20 0 -5
BITMAP
0000
0000
0500
0500
0500
0500
0500
0500
0500
0500
fdf8
8008
fdf8
0500
0500
0500
0500
0500
0500
0500
ENDCHAR
STARTCHAR C00cb
ENCODING 203
SWIDTH 666 0
DWIDTH 13 0
BBX 13 20 0 -5
BITMAP
0000
0000
0000
0000
0000
0000
0000
0000
0700
0580
fcc0
8040
fcc0
0580
0700
0000
0000
0000
0000
0000
ENDCHAR
STARTCHAR C00cc
ENCODING 204
SWIDTH 666 0
DWIDTH 13 0
BBX 13 20 0 -5
BITMAP
0000
0000
0000
0000
0000
0000
0000
0000
0700
0d00
19f8
1008
19f8
0d00
0700
0000
0000
0000
0000
0000
ENDCHAR
STARTCHAR C00cd
ENCODING 205
SWIDTH 666 0
DWIDTH 13 0
BBX 13 20 0 -5
BITMAP
0000
0000
0500
18c0
1040
1dc0
0500
0500
0500
0500
0500
0500
0500
0500
0500
0500
0500
0500
0500
0500
ENDCHAR
STARTCHAR C00ce
ENCODING 206
SWIDTH 666 0
DWIDTH 13 0
BBX 13 20 0 -5
BITMAP
0000
0000
0500
0500
0500
0500
0500
0500
0500
0500
0500
0500
0500
0500
0500
0500
1dc0
1040
18c0
0d80
ENDCHAR
STARTCHAR C00cf
ENCODING 207
SWIDTH 666 0
DWIDTH 13 0
BBX 13 20 0 -5
BITMAP
0000
0000
0500
0500
0500
0500
0500
0500
0500
0500
0500
0500
0700
0000
0000
0000
0000
0000
0000
0000
ENDCHAR
STARTCHAR C00d0
ENCODING 208
SWIDTH 666 0
DWIDTH 13 0
BBX 13 20 0 -5
BITMAP
0000
0000
0000
0000
0000
0000
0000
0000
0000
0000
0700
0500
0500
0500
0500
0500
0500
0500
0500
0500
ENDCHAR
STARTCHAR C00d1
ENCODING 209
SWIDTH 666 0
DWIDTH 13 0
BBX 13 20 0 -5
BITMAP
0000
0000
1040
6db0
5dd0
55d0
5410
57d0
58d0
6fb0
3060
1fc0
0000
0000
0000
0000
0000
0000
0000
0000
ENDCHAR
STARTCHAR C00d2
ENCODING 210
SWIDTH 666 0
DWIDTH 13 0
BBX 13 20 0 -5
BITMAP
0000
0000
0000
0000
0000
0000
0000
0000
0000
0000
01f8
0308
06f8
0580
0500
0500
0500
0500
0500
0500
ENDCHAR
STARTCHAR C00d3
ENCODING 211
SWIDTH 666 0
DWIDTH 13 0
BBX 13 20 0 -5
BITMAP
0000
0000
0000
0000
0000
0000
0000
0000
0000
0000
fc00
8600
fb00
0d00
0500
0500
0500
0500
0500
0500
ENDCHAR
STARTCHAR C00d4
ENCODING 212
SWIDTH 666 0
DWIDTH 13 0
BBX 13 20 0 -5
BITMAP
0000
0000
0500
0500
0500
0500
0500
0500
0580
06f8
0308
01f8
0000
0000
0000
0000
0000
0000
0000
0000
ENDCHAR
STARTCHAR C00d5
ENCODING 213
SWIDTH 666 0
DWIDTH 13 0
BBX 13 20 0 -5
BITMAP
0000
0000
0500
0500
0500
0500
0500
0500
0d00
fb00
8600
fc00
0000
0000
0000
0000
0000
0000
0000
0000
ENDCHAR
STARTCHAR C00d6
ENCODING 214
SWIDTH 666 0
DWIDTH 13 0
BBX 13 20 0 -5
BITMAP
0000
0000
0500
0500
0500
0500
0500
0500
0580
06c0
0360
01a0
0360
06c0
0580
0500
0500
0500
0500
0500
ENDCHAR
STARTCHAR C00d7
ENCODING 215
SWIDTH 666 0
DWIDTH 13 0
BBX 13 20 0 -5
BITMAP
0000
0000
0500
0500
0500
0500
0500
0500
0d00
1b00
3600
2c00
3600
1b00
0d00
0500
0500
0500
0500
0500
ENDCHAR
STARTCHAR C00d8
ENCODING 216
SWIDTH 666 0
DWIDTH 13 0
BBX 13 20 0 -5
BITMAP
0000
0000
0000
0000
0000
0000
0000
0000
0000
0000
f8f8
8d88
f778
1ac0
0d80
0700
0000
0000
0000
0000
ENDCHAR
STARTCHAR C00d9
ENCODING 217
SWIDTH 666 0
DWIDTH 13 0
BBX 13 20 0 -5
BITMAP
0000
0000
0000
0000
0000
0000
0000
0700
0d80
1ac0
f778
8d88
f8f8
0000
0000
0000
0000
0000
0000
0000
ENDCHAR
STARTCHAR C00da
ENCODING 218
SWIDTH 666 0
DWIDTH 13 0
BBX 13 20 0 -5
BITMAP
0000
0000
0500
0500
0500
0500
0500
0500
0500
0500
1dc0
1040
1dc0
0500
0500
0500
0500
0500
0500
0500
ENDCHAR
STARTCHAR C00db
ENCODING 219
SWIDTH 666 0
DWIDTH 13 0
BBX 13 20 0 -5
BITMAP
0000
0000
0000
0000
0000
0000
0000
0000
0700
0500
fdf8
8008
fdf8
0500
0700
0000
0000
0000
0000
0000
ENDCHAR
STARTCHAR C00dc
ENCODING 220
SWIDTH 666 0
DWIDTH 13 0
BBX 13 20 0 -5
BITMAP
0000
0000
fff8
8008
fff8
8008
fff8
8008
fff8
8008
fff8
8008
fff8
8008
fff8
8008
fff8
8008
fff8
8008
ENDCHAR
STARTCHAR C00dd
ENCODING 221
SWIDTH 666 0
DWIDTH 13 0
BBX 13 20 0 -5
BITMAP
0000
0000
fff8
aaa8
fff8
aaa8
fff8
aaa8
fff8
aaa8
fff8
aaa8
fff8
aaa8
fff8
aaa8
fff8
aaa8
fff8
aaa8
ENDCHAR
STARTCHAR C00de
ENCODING 222
SWIDTH 666 0
DWIDTH 13 0
BBX 13 20 0 -5
BITMAP
0000
0000
5550
aaa8
d558
aaa8
d558
aaa8
d558
aaa8
d558
aaa8
d558
aaa8
d558
aaa8
d558
aaa8
d558
aaa8
ENDCHAR
STARTCHAR C00df
ENCODING 223
SWIDTH 666 0
DWIDTH 13 0
BBX 13 20 0 -5
BITMAP
0000
0000
aaa8
aaa8
aaa8
aaa8
aaa8
aaa8
aaa8
aaa8
aaa8
aaa8
aaa8
aaa8
aaa8
aaa8
aaa8
aaa8
aaa8
aaa8
ENDCHAR
STARTCHAR C00e0
ENCODING 224
SWIDTH 666 0
DWIDTH 13 0
BBX 13 20 0 -5
BITMAP
0000
0000
0480
0480
0480
0480
0480
0480
0480
0480
0480
0480
0480
0480
0480
0480
0480
0480
0480
0480
ENDCHAR
STARTCHAR C00e1
ENCODING 225
SWIDTH 666 0
DWIDTH 13 0
BBX 13 20 0 -5
BITMAP
0000
0000
0000
0000
0000
0000
0000
0000
0000
fff8
8008
8008
fff8
0000
0000
0000
0000
0000
0000
0000
ENDCHAR
STARTCHAR C00e2
ENCODING 226
SWIDTH 666 0
DWIDTH 13 0
BBX 13 20 0 -5
BITMAP
0000
0000
0000
0000
0000
0000
0000
0000
0000
07f8
0408
0408
04f8
0480
0480
0480
0480
0480
0480
0480
ENDCHAR
STARTCHAR C00e3
ENCODING 227
SWIDTH 666 0
DWIDTH 13 0
BBX 13 20 0 -5
BITMAP
0000
0000
0000
0000
0000
0000
0000
0000
0000
ff80
8080
8080
fc80
0480
0480
0480
0480
0480
0480
0480
ENDCHAR
STARTCHAR C00e4
ENCODING 228
SWIDTH 666 0
DWIDTH 13 0
BBX 13 20 0 -5
BITMAP
0000
0000
0480
0480
0480
0480
0480
0480
0480
04f8
0408
0408
07f8
0000
0000
0000
0000
0000
0000
0000
ENDCHAR
STARTCHAR C00e5
ENCODING 229
SWIDTH 666 0
DWIDTH 13 0
BBX 13 20 0 -5
BITMAP
0000
0000
0900
0900
0900
0900
0900
0900
0900
f900
8100
8100
ff00
0000
0000
0000
0000
0000
0000
0000
ENDCHAR
STARTCHAR C00e6
ENCODING 230
SWIDTH 666 0
DWIDTH 13 0
BBX 13 20 0 -5
BITMAP
0000
0000
0480
0480
0480
0480
0480
0480
0480
04f8
0408
0408
04f8
0480
0480
0480
0480
0480
0480
0480
ENDCHAR
STARTCHAR C00e7
ENCODING 231
SWIDTH 666 0
DWIDTH 13 0
BBX 13 20 0 -5
BITMAP
0000
0000
0480
0480
0480
0480
0480
0480
0480
fc80
8080
8080
fc80
0480
0480
0480
0480
0480
0480
0480
ENDCHAR
STARTCHAR C00e8
ENCODING 232
SWIDTH 666 0
DWIDTH 13 0
BBX 13 20 0 -5
BITMAP
0000
0000
0000
0000
0000
0000
0000
0000
0000
fff8
8008
8008
fcf8
0480
0480
0480
0480
0480
0480
0480
ENDCHAR
STARTCHAR C00e9
ENCODING 233
SWIDTH 666 0
DWIDTH 13 0
BBX 13 20 0 -5
BITMAP
0000
0000
0480
0480
0480
0480
0480
0480
0480
fcf8
8008
8008
fff8
0000
0000
0000
0000
0000
0000
0000
ENDCHAR
STARTCHAR C00ea
ENCODING 234
SWIDTH 666 0
DWIDTH 13 0
BBX 13 20 0 -5
BITMAP
0000
0000
0480
0480
0480
0480
0480
0480
0480
fcf8
8008
8008
fcf8
0480
0480
0480
0480
0480
0480
0480
ENDCHAR
STARTCHAR C00eb
ENCODING 235
SWIDTH 666 0
DWIDTH 13 0
BBX 13 20 0 -5
BITMAP
0000
0000
0000
0000
0000
0000
0000
0700
0580
fcc0
8040
8040
fcc0
0580
0700
0000
0000
0000
0000
0000
ENDCHAR
STARTCHAR C00ec
ENCODING 236
SWIDTH 666 0
DWIDTH 13 0
BBX 13 20 0 -5
BITMAP
0000
0000
0000
0000
0000
0000
0000
0700
0d00
19f8
1008
1008
19f8
0d00
0700
0000
0000
0000
0000
0000
ENDCHAR
STARTCHAR C00ed
ENCODING 237
SWIDTH 666 0
DWIDTH 13 0
BBX 13 20 0 -5
BITMAP
0000
0000
0480
1860
1020
1ce0
0480
0480
0480
0480
0480
0480
0480
0480
0480
0480
0480
0480
0480
0480
ENDCHAR
STARTCHAR C00ee
ENCODING 238
SWIDTH 666 0
DWIDTH 13 0
BBX 13 20 0 -5
BITMAP
0000
0000
0480
0480
0480
0480
0480
0480
0480
0480
0480
0480
0480
0480
0480
0480
1ce0
1020
1860
0cc0
ENDCHAR
STARTCHAR C00ef
ENCODING 239
SWIDTH 666 0
DWIDTH 13 0
BBX 13 20 0 -5
BITMAP
0000
0000
0480
0480
0480
0480
0480
0480
0480
0480
0480
0480
0780
0000
0000
0000
0000
0000
0000
0000
ENDCHAR
STARTCHAR C00f0
ENCODING 240
SWIDTH 666 0
DWIDTH 13 0
BBX 13 20 0 -5
BITMAP
0000
0000
0000
0000
0000
0000
0000
0000
0000
0000
0780
0480
0480
0480
0480
0480
0480
0480
0480
0480
ENDCHAR
STARTCHAR C00f1
ENCODING 241
SWIDTH 666 0
DWIDTH 13 0
BBX 13 20 0 -5
BITMAP
0000
0000
0000
0000
3fe0
2020
3fe0
2020
3fe0
2020
3fe0
0000
0000
0000
0000
0000
0000
0000
0000
0000
ENDCHAR
STARTCHAR C00f2
ENCODING 242
SWIDTH 666 0
DWIDTH 13 0
BBX 13 20 0 -5
BITMAP
0000
0000
0000
0000
0000
0000
0000
0000
0000
01f8
0308
0608
0478
04c0
0480
0480
0480
0480
0480
0480
ENDCHAR
STARTCHAR C00f3
ENCODING 243
SWIDTH 666 0
DWIDTH 13 0
BBX 13 20 0 -5
BITMAP
0000
0000
0000
0000
0000
0000
0000
0000
0000
fe00
8300
8180
f880
0c80
0480
0480
0480
0480
0480
0480
ENDCHAR
STARTCHAR C00f4
ENCODING 244
SWIDTH 666 0
DWIDTH 13 0
BBX 13 20 0 -5
BITMAP
0000
0000
0480
0480
0480
0480
0480
0480
04c0
0478
0608
0308
01f8
0000
0000
0000
0000
0000
0000
0000
ENDCHAR
STARTCHAR C00f5
ENCODING 245
SWIDTH 666 0
DWIDTH 13 0
BBX 13 20 0 -5
BITMAP
0000
0000
0480
0480
0480
0480
0480
0480
0c80
f880
8180
8300
fe00
0000
0000
0000
0000
0000
0000
0000
ENDCHAR
STARTCHAR C00f6
ENCODING 246
SWIDTH 666 0
DWIDTH 13 0
BBX 13 20 0 -5
BITMAP
0000
0000
0480
0480
0480
0480
0480
04c0
0460
0630
0310
0310
0630
0460
04c0
0480
0480
0480
0480
0480
ENDCHAR
STARTCHAR C00f7
ENCODING 247
SWIDTH 666 0
DWIDTH 13 0
BBX 13 20 0 -5
BITMAP
0000
0000
0480
0480
0480
0480
0480
0c80
1880
3180
2300
2300
3180
1880
0c80
0480
0480
0480
0480
0480
ENDCHAR
STARTCHAR C00f8
ENCODING 248
SWIDTH 666 0
DWIDTH 13 0
BBX 13 20 0 -5
BITMAP
0000
0000
0000
0000
0000
0000
0000
0000
0000
fcf8
8788
8308
f038
1860
0cc0
0780
0000
0000
0000
0000
ENDCHAR
STARTCHAR C00f9
ENCODING 249
SWIDTH 666 0
DWIDTH 13 0
BBX 13 20 0 -5
BITMAP
0000
0000
0000
0000
0000
0000
0780
0cc0
1860
f038
8308
8788
fcf8
0000
0000
0000
0000
0000
0000
0000
ENDCHAR
STARTCHAR C00fa
ENCODING 250
SWIDTH 666 0
DWIDTH 13 0
BBX 13 20 0 -5
BITMAP
0000
0000
0480
0480
0480
0480
0480
0480
0480
1ce0
1020
1020
1ce0
0480
0480
0480
0480
0480
0480
0480
ENDCHAR
STARTCHAR C00fb
ENCODING 251
SWIDTH 666 0
DWIDTH 13 0
BBX 13 20 0 -5
BITMAP
0000
0000
0000
0000
0000
0000
0000
0780
0480
fcf8
8008
8008
fcf8
0480
0780
0000
0000
0000
0000
0000
ENDCHAR
STARTCHAR C00fc
ENCODING 252
SWIDTH 666 0
DWIDTH 13 0
BBX 13 20 0 -5
BITMAP
0000
0000
8100
bec0
a340
a1c0
a000
a000
a000
a000
a000
a000
e000
0000
0000
0000
0000
0000
0000
0000
ENDCHAR
STARTCHAR C00fd
ENCODING 253
SWIDTH 666 0
DWIDTH 13 0
BBX 13 20 0 -5
BITMAP
0000
0000
4040
9fc0
a300
b900
ad00
a500
a500
bd00
9900
c300
7e00
0000
0000
0000
0000
0000
0000
0000
ENDCHAR
STARTCHAR C00fe
ENCODING 254
SWIDTH 666 0
DWIDTH 13 0
BBX 13 20 0 -5
BITMAP
0000
0000
4020
9be0
ba00
aa00
ea00
0a00
0a00
0b00
09c0
0c40
07c0
0000
0000
0000
0000
0000
0000
0000
ENDCHAR
STARTCHAR C00ff
ENCODING 255
SWIDTH 666 0
DWIDTH 13 0
BBX 13 20 0 -5
BITMAP
0000
0000
4020
9be0
ba00
aa00
ea00
0a00
0a00
0b00
09c0
0c40
07c0
0000
0000
0000
0000
0000
0000
0000
ENDCHAR
ENDFONT
